<svg xmlns="http://www.w3.org/2000/svg" xmlns:xlink="http://www.w3.org/1999/xlink" width="500" zoomAndPan="magnify" viewBox="0 0 375 374.999991" height="500" preserveAspectRatio="xMidYMid meet" version="1.0"><defs><g/></defs><g fill="#000000" fill-opacity="1"><g transform="translate(38.320315, 202.499987)"><g><path d="M 3.71875 0 L 3.71875 -28.5625 L 15.90625 -28.5625 C 17.65625 -28.5625 19.140625 -28.28125 20.359375 -27.71875 C 21.578125 -27.164062 22.5 -26.378906 23.125 -25.359375 C 23.75 -24.335938 24.0625 -23.128906 24.0625 -21.734375 C 24.0625 -20.472656 23.753906 -19.359375 23.140625 -18.390625 C 22.535156 -17.429688 21.660156 -16.660156 20.515625 -16.078125 L 20.515625 -15.671875 C 22.304688 -15.203125 23.691406 -14.347656 24.671875 -13.109375 C 25.648438 -11.867188 26.140625 -10.351562 26.140625 -8.5625 C 26.140625 -5.820312 25.3125 -3.707031 23.65625 -2.21875 C 22.007812 -0.738281 19.566406 0 16.328125 0 Z M 14.734375 -17.171875 C 17.359375 -17.171875 18.671875 -18.351562 18.671875 -20.71875 C 18.671875 -21.9375 18.34375 -22.835938 17.6875 -23.421875 C 17.039062 -24.015625 16.054688 -24.3125 14.734375 -24.3125 L 9.359375 -24.3125 L 9.359375 -17.171875 Z M 15.765625 -4.46875 C 18.878906 -4.46875 20.4375 -5.882812 20.4375 -8.71875 C 20.4375 -11.550781 18.878906 -12.96875 15.765625 -12.96875 L 9.359375 -12.96875 L 9.359375 -4.46875 Z M 15.765625 -4.46875 "/></g></g></g><g fill="#000000" fill-opacity="1"><g transform="translate(66.247273, 202.499987)"><g><path d="M 8.40625 0.40625 C 7.019531 0.40625 5.816406 0.15625 4.796875 -0.34375 C 3.785156 -0.851562 3.003906 -1.597656 2.453125 -2.578125 C 1.910156 -3.566406 1.640625 -4.753906 1.640625 -6.140625 C 1.640625 -7.410156 1.910156 -8.476562 2.453125 -9.34375 C 3.003906 -10.207031 3.851562 -10.914062 5 -11.46875 C 6.144531 -12.03125 7.644531 -12.457031 9.5 -12.75 C 10.78125 -12.957031 11.753906 -13.1875 12.421875 -13.4375 C 13.097656 -13.6875 13.550781 -13.96875 13.78125 -14.28125 C 14.019531 -14.59375 14.140625 -14.988281 14.140625 -15.46875 C 14.140625 -16.15625 13.898438 -16.679688 13.421875 -17.046875 C 12.941406 -17.410156 12.140625 -17.59375 11.015625 -17.59375 C 9.816406 -17.59375 8.675781 -17.328125 7.59375 -16.796875 C 6.519531 -16.265625 5.582031 -15.5625 4.78125 -14.6875 L 4.390625 -14.6875 L 2.125 -18.109375 C 3.21875 -19.316406 4.550781 -20.257812 6.125 -20.9375 C 7.707031 -21.613281 9.429688 -21.953125 11.296875 -21.953125 C 14.140625 -21.953125 16.195312 -21.347656 17.46875 -20.140625 C 18.75 -18.929688 19.390625 -17.210938 19.390625 -14.984375 L 19.390625 -5.625 C 19.390625 -4.664062 19.816406 -4.1875 20.671875 -4.1875 C 20.992188 -4.1875 21.3125 -4.242188 21.625 -4.359375 L 21.890625 -4.28125 L 22.28125 -0.515625 C 21.988281 -0.316406 21.570312 -0.15625 21.03125 -0.03125 C 20.5 0.09375 19.914062 0.15625 19.28125 0.15625 C 17.988281 0.15625 16.976562 -0.0859375 16.25 -0.578125 C 15.53125 -1.078125 15.015625 -1.851562 14.703125 -2.90625 L 14.296875 -2.953125 C 13.242188 -0.710938 11.28125 0.40625 8.40625 0.40625 Z M 10.125 -3.640625 C 11.375 -3.640625 12.367188 -4.054688 13.109375 -4.890625 C 13.859375 -5.734375 14.234375 -6.90625 14.234375 -8.40625 L 14.234375 -10.59375 L 13.875 -10.671875 C 13.539062 -10.410156 13.109375 -10.191406 12.578125 -10.015625 C 12.054688 -9.835938 11.300781 -9.664062 10.3125 -9.5 C 9.144531 -9.300781 8.300781 -8.960938 7.78125 -8.484375 C 7.269531 -8.015625 7.015625 -7.34375 7.015625 -6.46875 C 7.015625 -5.539062 7.285156 -4.835938 7.828125 -4.359375 C 8.378906 -3.878906 9.144531 -3.640625 10.125 -3.640625 Z M 10.125 -3.640625 "/></g></g></g><g fill="#000000" fill-opacity="1"><g transform="translate(88.959902, 202.499987)"><g><path d="M 3.109375 0 L 3.109375 -21.546875 L 8.359375 -21.546875 L 8.359375 -18.34375 L 8.765625 -18.265625 C 9.285156 -19.460938 9.96875 -20.335938 10.8125 -20.890625 C 11.664062 -21.453125 12.695312 -21.734375 13.90625 -21.734375 C 15.132812 -21.734375 16.066406 -21.523438 16.703125 -21.109375 L 15.78125 -16.453125 L 15.375 -16.375 C 15.019531 -16.507812 14.679688 -16.609375 14.359375 -16.671875 C 14.035156 -16.742188 13.640625 -16.78125 13.171875 -16.78125 C 11.660156 -16.78125 10.503906 -16.25 9.703125 -15.1875 C 8.910156 -14.125 8.515625 -12.421875 8.515625 -10.078125 L 8.515625 0 Z M 3.109375 0 "/></g></g></g><g fill="#000000" fill-opacity="1"><g transform="translate(105.852788, 202.499987)"><g><path d="M 9.859375 0.40625 C 7.441406 0.40625 5.65625 -0.253906 4.5 -1.578125 C 3.351562 -2.898438 2.78125 -4.796875 2.78125 -7.265625 L 2.78125 -21.546875 L 8.1875 -21.546875 L 8.1875 -7.953125 C 8.1875 -6.640625 8.46875 -5.675781 9.03125 -5.0625 C 9.601562 -4.457031 10.476562 -4.15625 11.65625 -4.15625 C 13.15625 -4.15625 14.320312 -4.644531 15.15625 -5.625 C 15.988281 -6.613281 16.40625 -8.164062 16.40625 -10.28125 L 16.40625 -21.546875 L 21.8125 -21.546875 L 21.8125 0 L 16.625 0 L 16.625 -3.171875 L 16.21875 -3.265625 C 15.519531 -2.023438 14.671875 -1.101562 13.671875 -0.5 C 12.679688 0.101562 11.410156 0.40625 9.859375 0.40625 Z M 9.859375 0.40625 "/></g></g></g><g fill="#000000" fill-opacity="1"><g transform="translate(130.772228, 202.499987)"><g><path d="M 3.109375 0 L 3.109375 -21.546875 L 8.296875 -21.546875 L 8.296875 -18.375 L 8.71875 -18.28125 C 10.050781 -20.726562 12.222656 -21.953125 15.234375 -21.953125 C 17.722656 -21.953125 19.550781 -21.273438 20.71875 -19.921875 C 21.882812 -18.566406 22.46875 -16.59375 22.46875 -14 L 22.46875 0 L 17.046875 0 L 17.046875 -13.34375 C 17.046875 -14.769531 16.757812 -15.800781 16.1875 -16.4375 C 15.613281 -17.070312 14.695312 -17.390625 13.4375 -17.390625 C 11.882812 -17.390625 10.675781 -16.882812 9.8125 -15.875 C 8.945312 -14.875 8.515625 -13.300781 8.515625 -11.15625 L 8.515625 0 Z M 3.109375 0 "/></g></g></g><g fill="#000000" fill-opacity="1"><g transform="translate(156.004137, 202.499987)"><g><path d="M 8.40625 0.40625 C 7.019531 0.40625 5.816406 0.15625 4.796875 -0.34375 C 3.785156 -0.851562 3.003906 -1.597656 2.453125 -2.578125 C 1.910156 -3.566406 1.640625 -4.753906 1.640625 -6.140625 C 1.640625 -7.410156 1.910156 -8.476562 2.453125 -9.34375 C 3.003906 -10.207031 3.851562 -10.914062 5 -11.46875 C 6.144531 -12.03125 7.644531 -12.457031 9.5 -12.75 C 10.78125 -12.957031 11.753906 -13.1875 12.421875 -13.4375 C 13.097656 -13.6875 13.550781 -13.96875 13.78125 -14.28125 C 14.019531 -14.59375 14.140625 -14.988281 14.140625 -15.46875 C 14.140625 -16.15625 13.898438 -16.679688 13.421875 -17.046875 C 12.941406 -17.410156 12.140625 -17.59375 11.015625 -17.59375 C 9.816406 -17.59375 8.675781 -17.328125 7.59375 -16.796875 C 6.519531 -16.265625 5.582031 -15.5625 4.78125 -14.6875 L 4.390625 -14.6875 L 2.125 -18.109375 C 3.21875 -19.316406 4.550781 -20.257812 6.125 -20.9375 C 7.707031 -21.613281 9.429688 -21.953125 11.296875 -21.953125 C 14.140625 -21.953125 16.195312 -21.347656 17.46875 -20.140625 C 18.75 -18.929688 19.390625 -17.210938 19.390625 -14.984375 L 19.390625 -5.625 C 19.390625 -4.664062 19.816406 -4.1875 20.671875 -4.1875 C 20.992188 -4.1875 21.3125 -4.242188 21.625 -4.359375 L 21.890625 -4.28125 L 22.28125 -0.515625 C 21.988281 -0.316406 21.570312 -0.15625 21.03125 -0.03125 C 20.5 0.09375 19.914062 0.15625 19.28125 0.15625 C 17.988281 0.15625 16.976562 -0.0859375 16.25 -0.578125 C 15.53125 -1.078125 15.015625 -1.851562 14.703125 -2.90625 L 14.296875 -2.953125 C 13.242188 -0.710938 11.28125 0.40625 8.40625 0.40625 Z M 10.125 -3.640625 C 11.375 -3.640625 12.367188 -4.054688 13.109375 -4.890625 C 13.859375 -5.734375 14.234375 -6.90625 14.234375 -8.40625 L 14.234375 -10.59375 L 13.875 -10.671875 C 13.539062 -10.410156 13.109375 -10.191406 12.578125 -10.015625 C 12.054688 -9.835938 11.300781 -9.664062 10.3125 -9.5 C 9.144531 -9.300781 8.300781 -8.960938 7.78125 -8.484375 C 7.269531 -8.015625 7.015625 -7.34375 7.015625 -6.46875 C 7.015625 -5.539062 7.285156 -4.835938 7.828125 -4.359375 C 8.378906 -3.878906 9.144531 -3.640625 10.125 -3.640625 Z M 10.125 -3.640625 "/></g></g></g><g fill="#000000" fill-opacity="1"><g transform="translate(178.716767, 202.499987)"><g><path d="M 10.078125 0.40625 C 8.609375 0.40625 7.257812 0.234375 6.03125 -0.109375 C 4.8125 -0.453125 3.769531 -0.925781 2.90625 -1.53125 C 2.039062 -2.132812 1.398438 -2.828125 0.984375 -3.609375 L 3.984375 -6.859375 L 4.390625 -6.859375 C 5.109375 -5.890625 5.957031 -5.164062 6.9375 -4.6875 C 7.914062 -4.207031 8.976562 -3.96875 10.125 -3.96875 C 11.175781 -3.96875 11.96875 -4.15625 12.5 -4.53125 C 13.03125 -4.90625 13.296875 -5.445312 13.296875 -6.15625 C 13.296875 -6.695312 13.101562 -7.15625 12.71875 -7.53125 C 12.34375 -7.90625 11.722656 -8.195312 10.859375 -8.40625 L 8.015625 -9.078125 C 5.878906 -9.585938 4.316406 -10.363281 3.328125 -11.40625 C 2.347656 -12.457031 1.859375 -13.789062 1.859375 -15.40625 C 1.859375 -16.75 2.195312 -17.914062 2.875 -18.90625 C 3.5625 -19.894531 4.523438 -20.648438 5.765625 -21.171875 C 7.015625 -21.691406 8.46875 -21.953125 10.125 -21.953125 C 12.0625 -21.953125 13.664062 -21.671875 14.9375 -21.109375 C 16.21875 -20.554688 17.21875 -19.8125 17.9375 -18.875 L 15.046875 -15.75 L 14.65625 -15.75 C 14.050781 -16.425781 13.375 -16.921875 12.625 -17.234375 C 11.875 -17.546875 11.039062 -17.703125 10.125 -17.703125 C 7.988281 -17.703125 6.921875 -17.035156 6.921875 -15.703125 C 6.921875 -15.140625 7.117188 -14.679688 7.515625 -14.328125 C 7.910156 -13.984375 8.609375 -13.703125 9.609375 -13.484375 L 12.265625 -12.890625 C 14.453125 -12.421875 16.050781 -11.664062 17.0625 -10.625 C 18.070312 -9.59375 18.578125 -8.207031 18.578125 -6.46875 C 18.578125 -5.101562 18.238281 -3.898438 17.5625 -2.859375 C 16.882812 -1.816406 15.90625 -1.007812 14.625 -0.4375 C 13.351562 0.125 11.835938 0.40625 10.078125 0.40625 Z M 10.078125 0.40625 "/></g></g></g><g fill="#000000" fill-opacity="1"><g transform="translate(198.578113, 202.499987)"><g><path d="M 14.859375 -5.140625 L 16.265625 -1.140625 C 15.679688 -0.648438 14.945312 -0.269531 14.0625 0 C 13.175781 0.269531 12.175781 0.40625 11.0625 0.40625 C 8.726562 0.40625 6.953125 -0.226562 5.734375 -1.5 C 4.523438 -2.769531 3.921875 -4.613281 3.921875 -7.03125 L 3.921875 -17.265625 L 0.640625 -17.265625 L 0.640625 -21.5625 L 3.921875 -21.5625 L 3.921875 -25.765625 L 9.34375 -26.640625 L 9.34375 -21.5625 L 15.453125 -21.5625 L 15.453125 -17.265625 L 9.34375 -17.265625 L 9.34375 -7.421875 C 9.34375 -6.359375 9.5625 -5.582031 10 -5.09375 C 10.445312 -4.601562 11.09375 -4.359375 11.9375 -4.359375 C 12.894531 -4.359375 13.734375 -4.617188 14.453125 -5.140625 Z M 14.859375 -5.140625 "/></g></g></g><g fill="#000000" fill-opacity="1"><g transform="translate(215.314763, 202.499987)"><g><path d="M 3.109375 0 L 3.109375 -21.546875 L 8.359375 -21.546875 L 8.359375 -18.34375 L 8.765625 -18.265625 C 9.285156 -19.460938 9.96875 -20.335938 10.8125 -20.890625 C 11.664062 -21.453125 12.695312 -21.734375 13.90625 -21.734375 C 15.132812 -21.734375 16.066406 -21.523438 16.703125 -21.109375 L 15.78125 -16.453125 L 15.375 -16.375 C 15.019531 -16.507812 14.679688 -16.609375 14.359375 -16.671875 C 14.035156 -16.742188 13.640625 -16.78125 13.171875 -16.78125 C 11.660156 -16.78125 10.503906 -16.25 9.703125 -15.1875 C 8.910156 -14.125 8.515625 -12.421875 8.515625 -10.078125 L 8.515625 0 Z M 3.109375 0 "/></g></g></g><g fill="#000000" fill-opacity="1"><g transform="translate(232.207661, 202.499987)"><g><path d="M 8.40625 0.40625 C 7.019531 0.40625 5.816406 0.15625 4.796875 -0.34375 C 3.785156 -0.851562 3.003906 -1.597656 2.453125 -2.578125 C 1.910156 -3.566406 1.640625 -4.753906 1.640625 -6.140625 C 1.640625 -7.410156 1.910156 -8.476562 2.453125 -9.34375 C 3.003906 -10.207031 3.851562 -10.914062 5 -11.46875 C 6.144531 -12.03125 7.644531 -12.457031 9.5 -12.75 C 10.78125 -12.957031 11.753906 -13.1875 12.421875 -13.4375 C 13.097656 -13.6875 13.550781 -13.96875 13.78125 -14.28125 C 14.019531 -14.59375 14.140625 -14.988281 14.140625 -15.46875 C 14.140625 -16.15625 13.898438 -16.679688 13.421875 -17.046875 C 12.941406 -17.410156 12.140625 -17.59375 11.015625 -17.59375 C 9.816406 -17.59375 8.675781 -17.328125 7.59375 -16.796875 C 6.519531 -16.265625 5.582031 -15.5625 4.78125 -14.6875 L 4.390625 -14.6875 L 2.125 -18.109375 C 3.21875 -19.316406 4.550781 -20.257812 6.125 -20.9375 C 7.707031 -21.613281 9.429688 -21.953125 11.296875 -21.953125 C 14.140625 -21.953125 16.195312 -21.347656 17.46875 -20.140625 C 18.75 -18.929688 19.390625 -17.210938 19.390625 -14.984375 L 19.390625 -5.625 C 19.390625 -4.664062 19.816406 -4.1875 20.671875 -4.1875 C 20.992188 -4.1875 21.3125 -4.242188 21.625 -4.359375 L 21.890625 -4.28125 L 22.28125 -0.515625 C 21.988281 -0.316406 21.570312 -0.15625 21.03125 -0.03125 C 20.5 0.09375 19.914062 0.15625 19.28125 0.15625 C 17.988281 0.15625 16.976562 -0.0859375 16.25 -0.578125 C 15.53125 -1.078125 15.015625 -1.851562 14.703125 -2.90625 L 14.296875 -2.953125 C 13.242188 -0.710938 11.28125 0.40625 8.40625 0.40625 Z M 10.125 -3.640625 C 11.375 -3.640625 12.367188 -4.054688 13.109375 -4.890625 C 13.859375 -5.734375 14.234375 -6.90625 14.234375 -8.40625 L 14.234375 -10.59375 L 13.875 -10.671875 C 13.539062 -10.410156 13.109375 -10.191406 12.578125 -10.015625 C 12.054688 -9.835938 11.300781 -9.664062 10.3125 -9.5 C 9.144531 -9.300781 8.300781 -8.960938 7.78125 -8.484375 C 7.269531 -8.015625 7.015625 -7.34375 7.015625 -6.46875 C 7.015625 -5.539062 7.285156 -4.835938 7.828125 -4.359375 C 8.378906 -3.878906 9.144531 -3.640625 10.125 -3.640625 Z M 10.125 -3.640625 "/></g></g></g><g fill="#000000" fill-opacity="1"><g transform="translate(254.920291, 202.499987)"><g/></g></g><g fill="#001844" fill-opacity="1"><g transform="translate(264.363272, 202.499987)"><g><path d="M 9.359375 0 L 3.71875 0 L 3.71875 -28.5625 L 9.359375 -28.5625 Z M 9.359375 0 "/></g></g></g><g fill="#001844" fill-opacity="1"><g transform="translate(277.447931, 202.499987)"><g><path d="M 22.890625 -28.5625 L 22.890625 -23.8125 L 14.65625 -23.8125 L 14.65625 0 L 9.03125 0 L 9.03125 -23.8125 L 0.78125 -23.8125 L 0.78125 -28.5625 Z M 22.890625 -28.5625 "/></g></g></g><g fill="#001844" fill-opacity="1"><g transform="translate(301.117493, 202.499987)"><g><path d="M 12.65625 0.40625 C 10.675781 0.40625 8.914062 0.160156 7.375 -0.328125 C 5.832031 -0.816406 4.546875 -1.457031 3.515625 -2.25 C 2.484375 -3.039062 1.695312 -3.910156 1.15625 -4.859375 L 4.265625 -8.65625 L 4.75 -8.65625 C 5.601562 -7.375 6.691406 -6.351562 8.015625 -5.59375 C 9.335938 -4.84375 10.882812 -4.46875 12.65625 -4.46875 C 14.164062 -4.46875 15.304688 -4.785156 16.078125 -5.421875 C 16.847656 -6.066406 17.234375 -6.945312 17.234375 -8.0625 C 17.234375 -8.738281 17.109375 -9.304688 16.859375 -9.765625 C 16.609375 -10.222656 16.195312 -10.613281 15.625 -10.9375 C 15.050781 -11.257812 14.273438 -11.539062 13.296875 -11.78125 L 9.625 -12.625 C 7.0625 -13.207031 5.148438 -14.175781 3.890625 -15.53125 C 2.640625 -16.894531 2.015625 -18.664062 2.015625 -20.84375 C 2.015625 -22.457031 2.414062 -23.875 3.21875 -25.09375 C 4.03125 -26.320312 5.207031 -27.273438 6.75 -27.953125 C 8.289062 -28.628906 10.132812 -28.96875 12.28125 -28.96875 C 14.488281 -28.96875 16.375 -28.675781 17.9375 -28.09375 C 19.507812 -27.519531 20.835938 -26.632812 21.921875 -25.4375 L 19.125 -21.609375 L 18.640625 -21.609375 C 17.828125 -22.453125 16.898438 -23.082031 15.859375 -23.5 C 14.816406 -23.925781 13.625 -24.140625 12.28125 -24.140625 C 10.738281 -24.140625 9.5625 -23.863281 8.75 -23.3125 C 7.945312 -22.769531 7.546875 -22.019531 7.546875 -21.0625 C 7.546875 -20.15625 7.828125 -19.4375 8.390625 -18.90625 C 8.953125 -18.375 9.929688 -17.957031 11.328125 -17.65625 L 15.078125 -16.875 C 17.847656 -16.289062 19.859375 -15.296875 21.109375 -13.890625 C 22.359375 -12.492188 22.984375 -10.671875 22.984375 -8.421875 C 22.984375 -6.640625 22.597656 -5.085938 21.828125 -3.765625 C 21.066406 -2.441406 19.910156 -1.414062 18.359375 -0.6875 C 16.804688 0.0390625 14.90625 0.40625 12.65625 0.40625 Z M 12.65625 0.40625 "/></g></g></g><g fill="#001844" fill-opacity="1"><g transform="translate(325.646346, 202.499987)"><g><path d="M 5.515625 0.171875 C 4.816406 0.171875 4.203125 0.03125 3.671875 -0.25 C 3.148438 -0.53125 2.75 -0.914062 2.46875 -1.40625 C 2.1875 -1.90625 2.046875 -2.46875 2.046875 -3.09375 C 2.046875 -3.71875 2.1875 -4.273438 2.46875 -4.765625 C 2.75 -5.265625 3.148438 -5.65625 3.671875 -5.9375 C 4.203125 -6.226562 4.816406 -6.375 5.515625 -6.375 C 6.210938 -6.375 6.820312 -6.234375 7.34375 -5.953125 C 7.875 -5.671875 8.28125 -5.28125 8.5625 -4.78125 C 8.84375 -4.289062 8.984375 -3.734375 8.984375 -3.109375 C 8.984375 -2.160156 8.664062 -1.375 8.03125 -0.75 C 7.40625 -0.132812 6.566406 0.171875 5.515625 0.171875 Z M 5.515625 0.171875 "/></g></g></g></svg>