<svg xmlns="http://www.w3.org/2000/svg" xmlns:xlink="http://www.w3.org/1999/xlink" width="500" zoomAndPan="magnify" viewBox="0 0 375 374.999991" height="500" preserveAspectRatio="xMidYMid meet" version="1.0"><path fill="#00173f" d="M 53.878906 206.3125 L 0 205.941406 L 0 155.242188 L 160.929688 155.601562 L 160.929688 205.605469 L 105.292969 206.3125 L 104.933594 373.578125 L 54.234375 373.578125 Z M 213.753906 155.601562 L 375.386719 155.242188 L 375.386719 205.949219 L 264.460938 206.3125 L 264.460938 322.519531 L 374.683594 322.878906 L 374.683594 373.578125 L 213.394531 373.578125 Z M 0 -0.398438 L 375.386719 -0.398438 L 375.386719 108.078125 L 325.03125 107.710938 L 324.847656 79.222656 C 324.707031 57.507812 324.453125 50.605469 323.789062 50.183594 C 322.648438 49.457031 52.738281 49.457031 51.597656 50.183594 C 50.933594 50.605469 50.679688 57.507812 50.539062 79.222656 L 50.355469 107.710938 L 0 108.078125 Z M 0 -0.398438 " fill-opacity="1" fill-rule="nonzero"/></svg>